HIERARCHY
ROOT Hips
{
	OFFSET 0.00000 0.00000 0.00000
	CHANNELS 6 Xposition Yposition Zposition Zrotation Yrotation Xrotation 
	JOINT LHipJoint
	{
		OFFSET 0 0 0
		CHANNELS 3 Zrotation Yrotation Xrotation
		JOINT LeftUpLeg
		{
			OFFSET 1.67711 -1.75950 0.70433
			CHANNELS 3 Zrotation Yrotation Xrotation
			JOINT LeftLeg
			{
				OFFSET 2.44937 -6.72958 0.00000
				CHANNELS 3 Zrotation Yrotation Xrotation
				JOINT LeftFoot
				{
					OFFSET 2.61292 -7.17894 0.00000
					CHANNELS 3 Zrotation Yrotation Xrotation
					JOINT LeftToeBase
					{
						OFFSET 0.17811 -0.48914 1.82515
						CHANNELS 3 Zrotation Yrotation Xrotation
						End Site
						{
							OFFSET -0.00112 -0.00292 0.95564
						}
					}
				}
			}
		}
	}
	JOINT RHipJoint
	{
		OFFSET 0 0 0
		CHANNELS 3 Zrotation Yrotation Xrotation
		JOINT RightUpLeg
		{
			OFFSET -1.61866 -1.75949 0.70433
			CHANNELS 3 Zrotation Yrotation Xrotation
			JOINT RightLeg
			{
				OFFSET -2.36243 -6.49072 0.00000
				CHANNELS 3 Zrotation Yrotation Xrotation
				JOINT RightFoot
				{
					OFFSET -2.64336 -7.26259 0.00000
					CHANNELS 3 Zrotation Yrotation Xrotation
					JOINT RightToeBase
					{
						OFFSET -0.18169 -0.49935 1.90192
						CHANNELS 3 Zrotation Yrotation Xrotation
						End Site
						{
							OFFSET 0.00039 0.00229 0.99264
						}
					}
				}
			}
		}
	}
	JOINT LowerBack
	{
		OFFSET 0 0 0
		CHANNELS 3 Zrotation Yrotation Xrotation
		JOINT Spine
		{
			OFFSET -0.01926 2.19655 -0.12599
			CHANNELS 3 Zrotation Yrotation Xrotation
			JOINT Spine1
			{
				OFFSET 0.01663 2.20532 -0.00079
				CHANNELS 3 Zrotation Yrotation Xrotation
				JOINT Neck
				{
					OFFSET 0 0 0
					CHANNELS 3 Zrotation Yrotation Xrotation
					JOINT Neck1
					{
						OFFSET 0.10604 1.75174 0.14226
						CHANNELS 3 Zrotation Yrotation Xrotation
						JOINT Head
						{
							OFFSET -0.09898 1.68516 -0.48414
							CHANNELS 3 Zrotation Yrotation Xrotation
							End Site
							{
								OFFSET -0.02896 1.78316 -0.18415
							}
						}
					}
				}
				JOINT LeftShoulder
				{
					OFFSET 0 0 0
					CHANNELS 3 Zrotation Yrotation Xrotation
					JOINT LeftArm
					{
						OFFSET 3.30655 1.16959 -0.30867
						CHANNELS 3 Zrotation Yrotation Xrotation
						JOINT LeftForeArm
						{
							OFFSET 5.35289 -0.00000 -0.00000
							CHANNELS 3 Zrotation Yrotation Xrotation
							JOINT LeftHand
							{
								OFFSET 3.27727 -0.00000 -0.00000
								CHANNELS 3 Zrotation Yrotation Xrotation
								JOINT LeftFingerBase
								{
									OFFSET 0 0 0
									CHANNELS 3 Zrotation Yrotation Xrotation
									JOINT LeftHandIndex1
									{
										OFFSET 0.54443 0.00002 0.00009
										CHANNELS 3 Zrotation Yrotation Xrotation
										End Site
										{
											OFFSET 0.43891 -0.00000 -0.00000
										}
									}
								}
								JOINT LThumb
								{
									OFFSET 0 0 0
									CHANNELS 3 Zrotation Yrotation Xrotation
									End Site
									{
										OFFSET 0.44564 0.00002 0.44570
									}
								}
							}
						}
					}
				}
				JOINT RightShoulder
				{
					OFFSET 0 0 0
					CHANNELS 3 Zrotation Yrotation Xrotation
					JOINT RightArm
					{
						OFFSET -3.27172 0.97864 -0.36131
						CHANNELS 3 Zrotation Yrotation Xrotation
						JOINT RightForeArm
						{
							OFFSET -5.52076 -0.00317 -0.00590
							CHANNELS 3 Zrotation Yrotation Xrotation
							JOINT RightHand
							{
								OFFSET -3.32364 -0.00000 -0.00000
								CHANNELS 3 Zrotation Yrotation Xrotation
								JOINT RightFingerBase
								{
									OFFSET 0 0 0
									CHANNELS 3 Zrotation Yrotation Xrotation
									JOINT RightHandIndex1
									{
										OFFSET -0.73223 -0.00000 -0.00000
										CHANNELS 3 Zrotation Yrotation Xrotation
										End Site
										{
											OFFSET -0.59035 -0.00000 -0.00000
										}
									}
								}
								JOINT RThumb
								{
									OFFSET 0 0 0
									CHANNELS 3 Zrotation Yrotation Xrotation
									End Site
									{
										OFFSET -0.59936 -0.00000 0.59936
									}
								}
							}
						}
					}
				}
			}
		}
	}
}
MOTION
Frames: 6
Frame Time: .0083333
16.1514 23.2122 -8.4365 0 0 0 0 0 0 -21 0 0 0 0 0 0 0 0 0 0 0 0 0 0 21 0 0 0 0 0 0 0 0 0 0 0 0 0 0 0 0 0 0 0 0 0 0 -16 0 0 21 0 0 11 0 0 0 -8 0 0 0 0 0 0 0 0 0 0 0 0 0 0 0 0 0 0 0 0 8 0 0 0 0 0 0 0 0 0 0 0 0 0 0 0 0 0
16.1514 23.2122 -8.4365 -5.3491 -3.5725 9.9077 0.0000 0.0000 0.0000 -15.9903 -10.4948 -32.1567 4.9765 13.3573 40.7210 1.2083 -8.8672 -19.7135 0.0020 0.2914 0.8008 0.0000 0.0000 0.0000 26.1412 -6.6401 14.7081 0.0000 -0.0000 0.0000 -1.4858 -3.0200 22.2631 -0.4317 4.2167 -11.6871 3.5316 1.5226 3.0027 -0.6322 2.1358 0.3597 -2.7106 1.0505 -1.1601 10.4156 13.7996 -15.9932 -13.4365 22.6979 32.6070 -2.7805 9.0550 17.7427 -0.0000 0.0000 0.0000 -86.3158 -9.3677 -6.6277 14.6651 -23.6775 -3.0902 -0.0000 0.0000 -0.7727 15.3562 21.9414 5.8589 -7.1250 0.0000 -0.0000 -13.7613 52.1321 -2.4544 -0.0000 0.0000 0.0000 87.8766 -7.1776 28.6570 -19.6889 30.2658 -5.3737 0.0000 -0.0000 -5.7375 -11.2751 20.2792 -3.9528 7.1250 -0.0000 -0.0000 11.0056 -9.6340 9.1842
16.1501 23.2332 -8.3453 -5.1539 -3.7875 10.0314 0.0000 0.0000 0.0000 -16.3499 -10.1049 -31.7343 4.8592 13.2234 40.2107 1.2227 -8.9590 -19.8353 0.0060 0.5018 1.3787 0.0000 0.0000 0.0000 26.2457 -5.1220 10.9696 -0.1666 -2.6296 7.2491 -1.2320 -2.1566 20.3806 -0.3094 3.5762 -9.8874 3.1893 1.6964 3.4587 -1.0623 2.3706 -0.1845 -2.9983 1.1456 -1.9539 11.4076 13.6782 -14.8662 -13.4075 22.2742 32.6161 -3.1009 9.0798 17.5441 0.0000 -0.0000 0.0000 -85.5755 -8.7470 -5.9776 14.7422 -23.7858 -3.1212 -0.0000 0.0000 -1.0413 15.0569 22.7829 5.9472 -7.1250 0.0000 -0.0000 -14.4245 52.9092 -2.8545 0.0000 -0.0000 0.0000 88.5755 -8.0393 28.2668 -19.5484 30.0945 -5.3031 0.0000 -0.0000 -4.6994 -11.3691 20.5847 -4.0439 7.1250 -0.0000 -0.0000 10.9504 -9.3210 9.2065
16.1690 23.2611 -8.2105 -5.1359 -4.9409 9.8798 0.0000 0.0000 0.0000 -16.7731 -9.0174 -30.9055 4.7592 13.1074 39.7718 1.3006 -8.8243 -20.4361 0.0193 0.8976 2.4670 0.0000 0.0000 0.0000 25.9563 -3.4213 9.5927 -0.4037 -4.0790 11.2989 -1.0821 -1.7278 19.1622 -0.3932 4.0266 -11.1515 2.8003 1.9891 4.3350 -1.1921 2.7682 -0.6331 -2.9820 1.3236 -2.8904 11.4140 13.9566 -15.1278 -12.8781 22.6551 33.3454 -2.7702 9.2438 17.9693 0.0000 -0.0000 0.0000 -85.3559 -7.8784 -5.4232 14.9464 -24.0714 -3.2041 -0.0000 0.0000 -1.7922 15.2848 23.3187 6.1741 -7.1250 0.0000 -0.0000 -14.4451 53.4767 -3.0613 0.0000 -0.0000 0.0000 88.5359 -8.6910 28.5813 -19.3893 29.8996 -5.2235 0.0000 -0.0000 -4.1665 -11.5213 20.6695 -4.1154 7.1250 -0.0000 -0.0000 10.8550 -9.2215 9.1453
16.1690 23.2887 -8.1250 -5.1121 -4.5886 10.0536 0.0000 0.0000 0.0000 -16.9642 -8.7598 -30.6922 4.6616 12.9922 39.3394 1.2654 -8.8820 -20.1659 0.0116 0.6940 1.9072 0.0000 0.0000 0.0000 26.0907 -2.9890 7.7815 -0.6593 -5.1932 14.4603 -1.0413 -2.0315 18.7141 -0.4300 4.2084 -11.6638 2.7770 1.8129 4.1410 -1.2942 2.5219 -0.3545 -3.0443 1.2115 -2.5077 10.3945 14.3766 -16.9794 -12.0396 23.3179 34.0366 -1.9569 9.3224 18.5829 0.0000 -0.0000 0.0000 -85.1616 -8.4566 -4.8800 15.1398 -24.3405 -3.2833 -0.0000 0.0000 -2.5107 15.7679 24.2628 6.6185 -7.1250 0.0000 -0.0000 -14.4139 54.4940 -3.4158 0.0000 -0.0000 0.0000 88.5941 -7.7850 28.5438 -19.0909 29.5315 -5.0756 0.0000 -0.0000 -3.6826 -11.6138 20.9783 -4.2082 7.1250 -0.0000 -0.0000 10.8021 -8.9049 9.1687
16.1712 23.3098 -8.0348 -5.0402 -4.1735 10.2358 0.0000 0.0000 0.0000 -17.2443 -8.5507 -30.4812 4.5589 12.8692 38.8807 1.2592 -8.5020 -20.0925 0.0040 -0.4064 -1.1168 0.0000 0.0000 0.0000 26.1276 -2.8620 6.0811 -0.9336 -6.1547 17.2339 -1.0220 -1.9946 18.5430 -0.5558 4.7754 -13.2691 2.3808 1.4455 3.4908 -1.0730 2.0036 -0.2825 -2.5418 0.9667 -2.1268 9.7957 14.5475 -16.6961 -11.9933 23.7842 34.0554 -1.7508 9.4540 18.4877 -0.0000 -0.0000 0.0000 -85.5141 -8.3966 -5.4262 15.2697 -24.5205 -3.3371 -0.0000 0.0000 -2.6982 15.7035 24.0959 6.5481 -7.1250 0.0000 -0.0000 -14.3971 54.3179 -3.3493 -0.0000 -0.0000 0.0000 88.0159 -7.6532 29.1998 -18.9620 29.3715 -5.0122 0.0000 -0.0000 -3.1101 -11.9190 21.5002 -4.4237 7.1250 -0.0000 -0.0000 10.6208 -8.3535 9.1276
